<svg id="svg" fill="#000000" stroke="#000000" width="40" height="40" version="1.1" viewBox="144 144 512 512" xmlns="http://www.w3.org/2000/svg">
    <g id="IconSvg_bgCarrier" stroke-width="0"></g>
    <g id="IconSvg_tracerCarrier" stroke-linecap="round" stroke-linejoin="round" stroke="#CCCCCC" stroke-width="0">
      <g xmlns="http://www.w3.org/2000/svg">
  <path d="m205.82 237.26h388.35c9.5312 0 17.812 5.1641 22.41 12.793-1.5312-0.50391-3.2852-0.35547-4.7109 0.67188l-200.91 148.2c-6.5586 4.8477-15.398 4.8281-21.945 0l-200.91-148.2c-1.4062-1.0508-3.1484-1.1641-4.7109-0.67188 4.5977-7.6289 12.879-12.793 22.418-12.793z"></path>
  <path d="m620.41 536.5c0 14.473-11.766 26.238-26.238 26.238h-388.35c-14.465 0-26.238-11.766-26.238-26.238v-273c0-2.1289 0.32422-4.1562 0.80859-6.1523 0.34766 0.69141 0.82031 1.332 1.4922 1.8281l200.91 148.2c5.1445 3.7891 11.168 5.6875 17.215 5.6875 6.0352 0 12.059-1.8984 17.203-5.6875l200.93-148.2c0.66016-0.49219 1.125-1.1328 1.5-1.8281 0.45312 1.9727 0.77734 4.0195 0.77734 6.1484z"></path>
 </g>

      </g>
     <g id="IconSvg_iconCarrier">
      <g xmlns="http://www.w3.org/2000/svg">
  <path d="m205.82 237.26h388.35c9.5312 0 17.812 5.1641 22.41 12.793-1.5312-0.50391-3.2852-0.35547-4.7109 0.67188l-200.91 148.2c-6.5586 4.8477-15.398 4.8281-21.945 0l-200.91-148.2c-1.4062-1.0508-3.1484-1.1641-4.7109-0.67188 4.5977-7.6289 12.879-12.793 22.418-12.793z"></path>
  <path d="m620.41 536.5c0 14.473-11.766 26.238-26.238 26.238h-388.35c-14.465 0-26.238-11.766-26.238-26.238v-273c0-2.1289 0.32422-4.1562 0.80859-6.1523 0.34766 0.69141 0.82031 1.332 1.4922 1.8281l200.91 148.2c5.1445 3.7891 11.168 5.6875 17.215 5.6875 6.0352 0 12.059-1.8984 17.203-5.6875l200.93-148.2c0.66016-0.49219 1.125-1.1328 1.5-1.8281 0.45312 1.9727 0.77734 4.0195 0.77734 6.1484z"></path>
 </g>

      </g>
      </svg>