<svg id="svg" fill="#000000" stroke="#000000" width="40" height="40" version="1.1" viewBox="144 144 512 512" xmlns="http://www.w3.org/2000/svg">
    <g id="IconSvg_bgCarrier" stroke-width="0"></g>
    <g id="IconSvg_tracerCarrier" stroke-linecap="round" stroke-linejoin="round" stroke="#CCCCCC" stroke-width="0">
      <path xmlns="http://www.w3.org/2000/svg" d="m400 195.32c-86.812 0-157.44 70.629-157.44 157.44 0 81.926 130.81 230.06 145.72 246.68l11.723 13.051 11.715-13.051c14.914-16.617 145.72-164.75 145.72-246.68 0-86.812-70.625-157.44-157.44-157.44zm0 157.44c-8.6914 0-15.742-7.0547-15.742-15.742 0-8.6914 7.0547-15.742 15.742-15.742 8.6914 0 15.742 7.0547 15.742 15.742 0 8.6914-7.0547 15.742-15.742 15.742z"></path>

      </g>
     <g id="IconSvg_iconCarrier">
      <path xmlns="http://www.w3.org/2000/svg" d="m400 195.32c-86.812 0-157.44 70.629-157.44 157.44 0 81.926 130.81 230.06 145.72 246.68l11.723 13.051 11.715-13.051c14.914-16.617 145.72-164.75 145.72-246.68 0-86.812-70.625-157.44-157.44-157.44zm0 157.44c-8.6914 0-15.742-7.0547-15.742-15.742 0-8.6914 7.0547-15.742 15.742-15.742 8.6914 0 15.742 7.0547 15.742 15.742 0 8.6914-7.0547 15.742-15.742 15.742z"></path>

      </g>
      </svg>