<svg id="svg" fill="#000000" stroke="#000000" width="40" height="40" version="1.1" viewBox="144 144 512 512" xmlns="http://www.w3.org/2000/svg">
    <g id="IconSvg_bgCarrier" stroke-width="0"></g>
    <g id="IconSvg_tracerCarrier" stroke-linecap="round" stroke-linejoin="round" stroke="#CCCCCC" stroke-width="0">
      <path xmlns="http://www.w3.org/2000/svg" d="m620.41 518.23v54.949c0 12.527-4.9766 24.539-13.832 33.398-8.8594 8.8555-20.871 13.832-33.398 13.832h-31.488c-47.57 0.14063-94.695-9.1641-138.64-27.383-43.945-18.215-83.836-44.977-117.36-78.73-33.754-33.52-60.516-73.41-78.73-117.36-18.215-43.945-27.523-91.07-27.383-138.64v-31.488c0-12.523 4.9766-24.539 13.832-33.398 8.8594-8.8555 20.875-13.832 33.398-13.832h54.949c10.285-0.015625 20.297 3.3281 28.508 9.5234 8.2148 6.1953 14.18 14.902 16.992 24.797l19.836 69.43v0.003907c2.3359 8.1055 2.457 16.688 0.35156 24.852-2.1055 8.168-6.3555 15.625-12.316 21.594l-37.629 37.629c27.039 60 75.082 108.04 135.09 135.08l37.629-37.629c5.9648-5.957 13.422-10.211 21.59-12.316 8.168-2.1055 16.75-1.9805 24.852 0.35156l69.43 19.836h0.003906c9.8945 2.8125 18.602 8.7773 24.797 16.992 6.1953 8.2109 9.5391 18.223 9.5234 28.508z"></path>

      </g>
     <g id="IconSvg_iconCarrier">
      <path xmlns="http://www.w3.org/2000/svg" d="m620.41 518.23v54.949c0 12.527-4.9766 24.539-13.832 33.398-8.8594 8.8555-20.871 13.832-33.398 13.832h-31.488c-47.57 0.14063-94.695-9.1641-138.64-27.383-43.945-18.215-83.836-44.977-117.36-78.73-33.754-33.52-60.516-73.41-78.73-117.36-18.215-43.945-27.523-91.07-27.383-138.64v-31.488c0-12.523 4.9766-24.539 13.832-33.398 8.8594-8.8555 20.875-13.832 33.398-13.832h54.949c10.285-0.015625 20.297 3.3281 28.508 9.5234 8.2148 6.1953 14.18 14.902 16.992 24.797l19.836 69.43v0.003907c2.3359 8.1055 2.457 16.688 0.35156 24.852-2.1055 8.168-6.3555 15.625-12.316 21.594l-37.629 37.629c27.039 60 75.082 108.04 135.09 135.08l37.629-37.629c5.9648-5.957 13.422-10.211 21.59-12.316 8.168-2.1055 16.75-1.9805 24.852 0.35156l69.43 19.836h0.003906c9.8945 2.8125 18.602 8.7773 24.797 16.992 6.1953 8.2109 9.5391 18.223 9.5234 28.508z"></path>

      </g>
      </svg>