<svg id="svg" fill="#000000" stroke="#000000" width="200px" height="200px" version="1.1" viewBox="144 144 512 512" xmlns="http://www.w3.org/2000/svg">
    <g id="IconSvg_bgCarrier" stroke-width="0"></g>
    <g id="IconSvg_tracerCarrier" stroke-linecap="round" stroke-linejoin="round" stroke="#CCCCCC"></g>
     <g id="IconSvg_iconCarrier">
      <path xmlns="http://www.w3.org/2000/svg" d="m625.91 181c-0.42969-3.5781-3.2539-6.3984-6.8281-6.832-2.0234-0.20703-310.09-36.258-445.31 375.54-0.74609 2.2422-0.42188 4.7109 0.87109 6.6992 1.3008 1.9883 3.4219 3.2734 5.7734 3.5117l54.348 5.4258 5.4141 54.332c0.23047 2.3477 1.5312 4.4805 3.5117 5.7734 1.2852 0.83984 2.7656 1.2656 4.2617 1.2656 0.82812 0 1.6484-0.125 2.4453-0.38672 77.324-25.383 138.77-57.051 187.68-91.688 1.1523-0.4375 2.2422-1.0781 3.1133-2.0625 0.12109-0.13672 0.15234-0.31641 0.26172-0.45703 54.875-39.504 93.707-82.73 121-124.98 0.30859-0.17969 0.625-0.28125 0.90234-0.51562 1.6758-1.4102 2.5938-3.375 2.7461-5.4023 70.773-113.71 60.035-218.41 59.809-220.22zm-27.09 7.9102c4.9336 0 8.9766 0.13672 12 0.29688 1.0586 23.109 0.36719 105.87-53.484 196.46-7.8633-13.301-9.3906-26.012-10.871-39.312-2.1523-19.371-4.6094-41.328-28.008-64.723-23.391-23.402-45.348-25.844-64.723-28.008-13.543-1.5-26.48-3.0664-40.039-11.332 78.703-46.953 151.62-53.383 185.12-53.383zm-348.76 372.21 10.844-10.863c1.5273-1.5273 2.2891-3.5352 2.2891-5.5352s-0.76172-4-2.2891-5.5234c-3.0547-3.0547-8-3.0547-11.055 0l-10.855 10.863-47.273-4.7266c23.09-67.828 51.047-122.65 81.43-167.23 9.9102 14.637 11.543 28.445 13.16 42.93 2.1562 19.398 4.5938 41.367 28.008 64.766 23.391 23.406 45.363 25.852 64.758 28.008 14.41 1.6016 28.148 3.2383 42.703 13.02-44.508 30.492-99.305 58.492-167.01 81.559zm185.14-43.844c-19.496-14.973-37.957-17.184-54.402-19.016-18.461-2.0469-35.91-3.9844-55.426-23.52-19.531-19.527-21.473-36.969-23.531-55.434-1.8281-16.531-4.0625-35.094-19.25-54.695 37.07-51.012 77.293-87.41 116.64-113.23 18.762 13.852 36.051 15.934 52.785 17.801 18.445 2.0547 35.883 3.9883 55.395 23.512 19.52 19.527 21.473 36.949 23.52 55.402 1.8281 16.539 3.8789 33.609 17.301 52.129-25.809 39.477-62.164 79.867-113.03 117.05z"></path>

      </g>
      </svg>